<svg xmlns="http://www.w3.org/2000/svg" width="32" height="32" viewBox="0 0 32 32" role="img" aria-labelledby="title">
  <title id="title">Galaxy GXLY</title>
  <defs>
    <linearGradient id="orbit" x1="5" y1="27" x2="27" y2="5" gradientUnits="userSpaceOnUse">
      <stop stop-color="#2b37ff"/>
      <stop offset="0.52" stop-color="#006cff"/>
      <stop offset="1" stop-color="#9828ff"/>
    </linearGradient>
    <radialGradient id="core" cx="0" cy="0" r="1" gradientTransform="translate(17 14) rotate(115) scale(8)">
      <stop stop-color="#dca8ff"/>
      <stop offset="0.55" stop-color="#7d27ff"/>
      <stop offset="1" stop-color="#004cff"/>
    </radialGradient>
  </defs>
  <circle cx="16" cy="16" r="15.5" fill="#071055"/>
  <path d="M27 11.2A12.2 12.2 0 1 0 25.8 24 10.6 10.6 0 1 1 27 11.2Z" fill="url(#orbit)"/>
  <path d="M21.9 9.2A8.7 8.7 0 1 0 22.8 21a7.2 7.2 0 1 1-.9-11.8Z" fill="#0871ff"/>
  <circle cx="16.3" cy="15.6" r="3.2" fill="url(#core)"/>
  <path d="M21.8 12.8h5.5a1 1 0 0 1 1 1v1.4a1 1 0 0 1-1 1h-2.6v3.1c-1.3 2.2-3.2 3.8-5.6 4.7l2.5-4.3v-3.5h-1.1a1 1 0 0 1-.9-.6l-1-2.8h3.2Z" fill="url(#orbit)"/>
  <path d="m24.2 5.1.6 1.6 1.6.6-1.6.6-.6 1.6-.6-1.6-1.6-.6 1.6-.6.6-1.6Z" fill="#fff"/>
</svg>
